<?xml version="1.0" encoding="utf-8"?>
<!-- Generator: Adobe Illustrator 23.0.3, SVG Export Plug-In . SVG Version: 6.00 Build 0)  -->
<svg version="1.1" id="Layer_1" xmlns="http://www.w3.org/2000/svg" xmlns:xlink="http://www.w3.org/1999/xlink" x="0px" y="0px"
	 viewBox="0 0 150 150" style="enable-background:new 0 0 150 150;" xml:space="preserve">
<style type="text/css">
	.st0{fill:url(#SVGID_1_);}
	.st1{fill:url(#SVGID_2_);}
	.st2{fill:url(#SVGID_3_);}
	.st3{fill:url(#SVGID_4_);}
	.st4{fill:url(#SVGID_5_);}
	.st5{fill:url(#SVGID_6_);}
	.st6{fill:url(#SVGID_7_);}
	.st7{fill:url(#SVGID_8_);}
	.st8{fill:url(#SVGID_9_);}
	.st9{fill:url(#SVGID_10_);}
	.st10{fill:url(#SVGID_11_);}
	.st11{fill:#FFFFFF;}
	.st12{fill:url(#SVGID_12_);}
	.st13{fill:url(#SVGID_13_);}
	.st14{fill:url(#SVGID_14_);}
	.st15{fill:url(#SVGID_15_);}
	.st16{fill:url(#SVGID_16_);}
	.st17{fill:url(#SVGID_17_);}
	.st18{fill:url(#SVGID_18_);}
	.st19{fill:url(#SVGID_19_);}
	.st20{fill:url(#SVGID_20_);}
	.st21{fill:url(#SVGID_21_);}
	.st22{fill:url(#SVGID_22_);}
	.st23{fill:url(#SVGID_23_);}
	.st24{fill:url(#SVGID_24_);}
	.st25{fill:url(#SVGID_25_);}
	.st26{fill:url(#SVGID_26_);}
	.st27{fill:url(#SVGID_27_);}
	.st28{fill:url(#SVGID_28_);}
	.st29{fill:url(#SVGID_29_);}
	.st30{fill:url(#SVGID_30_);}
	.st31{fill:url(#SVGID_31_);}
	.st32{fill:url(#SVGID_32_);}
	.st33{fill:url(#SVGID_33_);}
	.st34{fill:url(#SVGID_34_);}
	.st35{fill:url(#SVGID_35_);}
	.st36{fill:url(#SVGID_36_);}
	.st37{fill:url(#SVGID_37_);}
	.st38{fill:url(#SVGID_38_);}
	.st39{fill:url(#SVGID_39_);}
	.st40{fill:url(#SVGID_40_);}
	.st41{fill:url(#SVGID_41_);}
	.st42{fill:url(#SVGID_42_);}
	.st43{fill:url(#SVGID_43_);}
	.st44{fill:url(#SVGID_44_);}
	.st45{fill:url(#SVGID_45_);}
	.st46{fill:url(#SVGID_46_);}
	.st47{fill:url(#SVGID_47_);}
	.st48{fill:url(#SVGID_48_);}
	.st49{fill:url(#SVGID_49_);}
	.st50{fill:url(#SVGID_50_);}
	.st51{fill:url(#SVGID_51_);}
	.st52{fill:url(#SVGID_52_);}
	.st53{fill:url(#SVGID_53_);}
	.st54{fill:url(#SVGID_54_);}
	.st55{fill:url(#SVGID_55_);}
	.st56{fill:url(#SVGID_56_);}
	.st57{fill:url(#SVGID_57_);}
	.st58{fill:url(#SVGID_58_);}
	.st59{fill:url(#SVGID_59_);}
	.st60{fill:url(#SVGID_60_);}
	.st61{fill:url(#SVGID_61_);}
</style>
<g>
	<linearGradient id="SVGID_1_" gradientUnits="userSpaceOnUse" x1="1.6472" y1="75" x2="148.353" y2="75">
		<stop  offset="0" style="stop-color:#2DC68A"/>
		<stop  offset="1" style="stop-color:#AFA16A"/>
	</linearGradient>
	<path class="st0" d="M75,1.6C34.5,1.6,1.6,34.5,1.6,75s32.8,73.4,73.4,73.4s73.4-32.8,73.4-73.4S115.5,1.6,75,1.6z M75,142.4
		c-37.1,0-67.4-30.2-67.4-67.4C7.6,37.9,37.9,7.6,75,7.6c37.1,0,67.4,30.2,67.4,67.4C142.4,112.1,112.1,142.4,75,142.4z"/>
	<linearGradient id="SVGID_2_" gradientUnits="userSpaceOnUse" x1="61.0564" y1="44.5616" x2="88.9432" y2="44.5616">
		<stop  offset="0" style="stop-color:#2DC68A"/>
		<stop  offset="1" style="stop-color:#AFA16A"/>
	</linearGradient>
	<path class="st1" d="M75,47.5c0,0,8.6,0,13.7,6.3c0,0,3.2-17.4-13.7-18.5c-16.9,1.1-13.7,18.5-13.7,18.5C66.4,47.5,75,47.5,75,47.5
		z"/>
	<linearGradient id="SVGID_3_" gradientUnits="userSpaceOnUse" x1="31.2155" y1="80.9832" x2="118.7844" y2="80.9832">
		<stop  offset="0" style="stop-color:#2DC68A"/>
		<stop  offset="1" style="stop-color:#AFA16A"/>
	</linearGradient>
	<path class="st2" d="M117.9,89.4l-7.3-5.9l-8.8,0.4c-0.1-2.2-0.4-4.3-0.9-6.3l7.4-2l6.3-6.9c0.9-1,0.9-2.6-0.2-3.5
		c-1-0.9-2.6-0.9-3.5,0.2l-5.3,5.8l-6.2,1.6c-1.1-3-2.4-5.5-3.5-7.4l8-6.3l-3-9.9c-0.4-1.3-1.8-2.1-3.1-1.7
		c-1.3,0.4-2.1,1.8-1.7,3.1l2,6.7l-5,4c-0.6-1-7.3-11.6-17.6-11.3h-1.2c-10.3-0.2-17,10.4-17.6,11.3l-5-4l2-6.7
		c0.4-1.3-0.4-2.7-1.7-3.1c-1.3-0.4-2.7,0.4-3.1,1.7L46,59l8,6.3c-1.1,1.9-2.4,4.5-3.5,7.4l-6.2-1.6l-5.3-5.8
		c-0.9-1-2.5-1.1-3.5-0.2c-1,0.9-1.1,2.5-0.2,3.5l6.3,6.9l7.4,2c-0.5,2-0.8,4.1-0.9,6.3l-8.8-0.4l-7.3,5.9c-1.1,0.9-1.2,2.4-0.4,3.5
		c0.5,0.6,1.2,0.9,2,0.9c0.5,0,1.1-0.2,1.6-0.6l5.9-4.7l7.3,0.3c0.3,2.3,0.9,4.7,1.8,7.1l-9.6,4.5L34.9,111c-0.7,1.2-0.2,2.7,1,3.4
		c0.4,0.2,0.8,0.3,1.2,0.3c0.9,0,1.7-0.5,2.2-1.3l4.9-9.1l8.2-3.9c0.7,1.2,1.6,2.4,2.5,3.6c7.6,7.8,17.6,8.2,20,8.1
		c2.5,0,12.4-0.3,20-8.1c1-1.2,1.8-2.4,2.5-3.6l8.2,3.9l4.9,9.1c0.5,0.8,1.3,1.3,2.2,1.3c0.4,0,0.8-0.1,1.2-0.3
		c1.2-0.7,1.7-2.2,1-3.4l-5.7-10.5l-9.6-4.5c0.9-2.4,1.5-4.8,1.8-7.1l7.3-0.3l5.9,4.7c0.5,0.4,1,0.6,1.6,0.6c0.7,0,1.5-0.3,2-0.9
		C119.1,91.8,118.9,90.2,117.9,89.4z"/>
</g>
</svg>
