<?xml version="1.0" encoding="UTF-8" standalone="no"?> <svg id="Layer_1" enable-background="new 0 0 512.207 512.207" height="512" viewBox="0 0 512.207 512.207" width="512" xmlns="http://www.w3.org/2000/svg"><g><g><path d="m482.268 424.568-12.229-20.29-12.848 7.744 12.229 20.288c16.941 28.12-2.716 65.965-37.662 64.854-32.073-1.081-51.172-36.987-34.379-64.854l36.016-59.778 15.816 26.249 12.848-7.742-28.664-47.571-48.863 81.102c-10.743 17.824-11.207 39.426-1.241 57.782 21.599 39.785 78.591 39.825 100.211.009 9.967-18.358 9.506-39.962-1.234-57.793z"/><path d="m390.694 282.244v45.016h84.26v-79.916l-55.813-55.814h-42.927v15h36.714l47.026 47.027v58.703h-54.26v-36.225l-15.232-15.245h-14.248v15h8.031z"/><path d="m112.554 315.18h67.84v-15h-52.84v-131.96h211.16v131.96h-143.32v15h158.32v-161.96h-241.16z"/><path d="m205.906 105.03h-16.59l-20.376 20.388 10.609 10.604 15.983-15.991h75.206l15.994 15.993 10.605-10.607-20.387-20.387h-16.584v-19.13h73.23v-52.93h-73.23v-18.967l-14.004-14.003h-26.453l-14.003 14.003v18.967h-73.23v52.93h73.23zm39.46 0h-24.46v-19.13h24.46zm-24.46-84.814 5.216-5.216h14.027l5.216 5.216v12.754h-24.46v-12.754zm-73.23 50.684v-22.93h170.92v22.93z"/><path d="m21.544 275.79h68.51v-15h-53.51v-54.26h53.51v-15h-68.51z"/></g><g><path d="m285.396 241.698h-15v-15h15zm-45.001 0h-15v-15h15zm-45 0h-15v-15h15z"/></g><g><path d="m425.965 451.848h15v15h-15z"/></g></g></svg>