<?xml version="1.0" encoding="utf-8"?>
<!-- Generator: Adobe Illustrator 18.0.0, SVG Export Plug-In . SVG Version: 6.00 Build 0)  -->
<!DOCTYPE svg PUBLIC "-//W3C//DTD SVG 1.1//EN" "http://www.w3.org/Graphics/SVG/1.1/DTD/svg11.dtd">
<svg version="1.1" id="Layer_1" xmlns="http://www.w3.org/2000/svg" xmlns:xlink="http://www.w3.org/1999/xlink" x="0px" y="0px"
	 viewBox="0 0 227.3 215.3" enable-background="new 0 0 227.3 215.3" xml:space="preserve">
<path fill="#5A9EC1" d="M205.8,75.1l-16.3,4.3c-3.4-7.2-7.9-13.7-13.2-19.5l10.5-13.6L164.3,29l-10.6,13.7c-6.9-3.5-14.3-6-22.1-7.4
	V17.8h-28.4v17.5c-5.9,1.1-11.6,2.8-16.9,5c0,0,0,0,0,0c-1.4,0.6-2.8,1.2-4.2,1.9L71.7,28.3L49,45.3L59.3,59
	c-3.9,4.1-7.4,8.7-10.4,13.6L33,66.8l-9.8,26.6l15.6,5.7c-0.9,4.8-1.4,9.8-1.4,14.8c0,1.8,0.1,3.5,0.2,5.2l-15.9,4.2l7.2,27.4
	l15.5-4.1c3.4,7.5,7.8,14.4,13.2,20.4L48,179.6l22.4,17.3l9.5-12.3c7.2,3.8,15,6.5,23.2,8v15.5h28.4v-15.5c7.9-1.4,15.3-4,22.2-7.5
	l9.3,12.4l22.7-17l-9.4-12.6c1.3-1.4,2.5-2.8,3.6-4.3c0.1-0.2,0.3-0.3,0.4-0.5c2.4-3,4.5-6.2,6.5-9.6l15,5.5l9.8-26.6l-15.3-5.6
	c0.7-4.2,1.1-8.5,1.1-12.9c0-2.4-0.1-4.8-0.3-7.2l16-4.2L205.8,75.1z M62.9,112.9c0-1.7,0.1-3.3,0.3-5c0-0.4,0.1-0.7,0.1-1.1
	c0.2-1.6,0.4-3.2,0.7-4.7c0.1-0.3,0.1-0.5,0.2-0.8c0.3-1.4,0.6-2.7,1-4.1c0.1-0.3,0.2-0.6,0.3-0.9c0.5-1.5,1-2.9,1.6-4.3
	c0.1-0.4,0.3-0.7,0.5-1c0.6-1.3,1.1-2.5,1.8-3.7c0.1-0.2,0.2-0.4,0.3-0.5c0.7-1.3,1.5-2.6,2.3-3.8c0.2-0.4,0.5-0.7,0.7-1.1
	c0.8-1.2,1.7-2.4,2.6-3.5c0.2-0.2,0.4-0.5,0.6-0.7c0.8-1,1.6-1.9,2.5-2.8c0.3-0.3,0.6-0.6,0.9-0.9c1-1,2.1-2,3.2-2.9
	c0.3-0.3,0.7-0.5,1-0.8c1-0.8,2-1.5,3-2.2c0.3-0.2,0.5-0.4,0.8-0.5c8.6-5.8,19-9.2,30.2-9.2c30.1,0,54.4,24.4,54.4,54.4
	c0,16.4-7.2,31-18.7,41c-0.7,0.6-1.3,1.1-2,1.7c-0.7,0.5-1.3,1-2,1.5c-0.7,0.5-1.4,1-2.1,1.5c-0.7,0.5-1.5,0.9-2.2,1.3
	c-0.7,0.4-1.4,0.8-2.2,1.2c-0.8,0.4-1.6,0.8-2.4,1.2c-0.7,0.3-1.5,0.7-2.2,1c-0.9,0.4-1.8,0.7-2.6,1c-0.7,0.3-1.5,0.5-2.2,0.8
	c-1,0.3-2,0.5-2.9,0.8c-0.7,0.2-1.4,0.4-2.1,0.5c-0.3,0.1-0.5,0.1-0.8,0.1v-9.3c-0.5-3.7-2.7-5.4-4.9-6.3V123h-0.1
	c12.1-2.3,21.3-12.9,21.3-25.7c0-0.7,0-1.5-0.1-2.2c0,0.1,0,0.1-0.1,0.2c-0.8-9.9-6.9-18.2-15.6-22v24h-20.8V81.9v-8.7
	c-9.3,4-15.7,13.3-15.7,24c0,12.8,9.2,23.4,21.3,25.7h0v27.8c-4.8,1.8-5,6.4-5,6.4v9.3C82.1,161.8,62.9,139.6,62.9,112.9z"/>
<g>
	<g>
		<path fill="#BCBEC0" d="M115.5,60.3v24H94.7v-24c-9.3,4-15.7,13.3-15.7,24c0,14.4,11.7,26.2,26.2,26.2c14.5,0,26.2-11.7,26.2-26.2
			C131.3,73.6,124.8,64.3,115.5,60.3z"/>
		<path fill="#A3A5A8" d="M128.7,89.1c-5.3,9.6-17.2,15.1-27.9,11.6C86.7,96,85.5,78.4,94.7,69v-8.7c-9.3,4-15.7,13.3-15.7,24
			c0,14.4,11.7,26.2,26.2,26.2c14.5,0,26.2-11.7,26.2-26.2c0-0.7,0-1.5-0.1-2.2C130.7,84.5,130,86.9,128.7,89.1z"/>
		<rect x="100.2" y="110" fill="#D1D3D4" width="9.9" height="28.2"/>
		<rect x="100.2" y="110" fill="#BABCBE" width="4.9" height="28.2"/>
		<path fill="#D83633" d="M115,167.2v-23c-1.1-7.8-9.9-7.1-9.9-7.1c-9.6-0.2-9.9,7.1-9.9,7.1v23H115z"/>
		<path fill="#D1D3D4" d="M107.8,167.2v-13.6c0-1.5-1.2-2.7-2.7-2.7c-1.5,0-2.7,1.2-2.7,2.7v13.6H107.8z"/>
	</g>
	<path fill="#4D77BB" d="M185.1,101c0-2.4-0.1-4.8-0.3-7.2l16-4.2l-7.2-27.4l-16.3,4.3c-3.4-7.2-7.9-13.7-13.2-19.5l10.5-13.6
		L152,16l-10.6,13.7c-6.9-3.5-14.3-6-22.1-7.4V4.9H90.9v17.5c-7.4,1.3-14.5,3.7-21.1,6.9L59.4,15.4l-22.7,17L47,46.1
		c-3.9,4.1-7.4,8.7-10.4,13.6l-15.9-5.9L11,80.4l15.6,5.7c-0.9,4.8-1.4,9.8-1.4,14.8c0,1.8,0.1,3.5,0.2,5.2l-15.9,4.2l7.2,27.4
		l15.5-4.1c3.4,7.5,7.8,14.4,13.2,20.4l-9.6,12.5L58.2,184l9.5-12.3c7.2,3.8,15,6.5,23.2,8v15.5h28.4v-15.5c7.9-1.4,15.3-4,22.2-7.5
		l9.3,12.4l22.7-17L164,155c4-4.4,7.5-9.2,10.5-14.4l15,5.5l9.8-26.6l-15.3-5.6C184.7,109.7,185.1,105.4,185.1,101z M105.1,154.4
		c-30.1,0-54.4-24.4-54.4-54.4c0-30.1,24.4-54.4,54.4-54.4c30.1,0,54.4,24.4,54.4,54.4C159.6,130.1,135.2,154.4,105.1,154.4z"/>
	<path fill="#39598D" d="M171.3,145.8c-1.3-0.1-2.5-0.2-3.8-0.3c-8.7-0.7-17.3-2.6-25.5-5.4c-9.7,8.9-22.6,14.4-36.8,14.4
		c-30.1,0-54.4-24.4-54.4-54.4c0-18.9,9.7-35.6,24.3-45.3c-1.4-9-1.8-18.3-1-27.3c-1.4,0.6-2.8,1.2-4.2,1.9L59.4,15.4l-22.7,17
		L47,46.1c-3.9,4.1-7.4,8.7-10.4,13.6l-15.9-5.9L11,80.4l15.6,5.7c-0.9,4.8-1.4,9.8-1.4,14.8c0,1.8,0.1,3.5,0.2,5.2l-15.9,4.2
		l7.2,27.4l15.5-4.1c3.4,7.5,7.8,14.4,13.2,20.4l-9.6,12.5L58.2,184l9.5-12.3c7.2,3.8,15,6.5,23.2,8v15.5h28.4v-15.5
		c7.9-1.4,15.3-4,22.2-7.5l9.3,12.4l22.7-17L164,155C166.7,152.1,169.1,149,171.3,145.8z"/>
</g>
</svg>
