<?xml version="1.0" encoding="utf-8"?>
<!-- Generator: Adobe Illustrator 17.0.0, SVG Export Plug-In . SVG Version: 6.00 Build 0)  -->
<!DOCTYPE svg PUBLIC "-//W3C//DTD SVG 1.1//EN" "http://www.w3.org/Graphics/SVG/1.1/DTD/svg11.dtd">
<svg version="1.1" id="Layer_1" xmlns="http://www.w3.org/2000/svg" xmlns:xlink="http://www.w3.org/1999/xlink" x="0px" y="0px"
	 width="499.312px" height="499.312px" viewBox="0 0 499.312 499.312" enable-background="new 0 0 499.312 499.312"
	 xml:space="preserve">
<path d="M147.313,172.688L0,320l179.313,179.313L326.625,352L147.313,172.688z M22.625,320l124.688-124.688L160,208L35.313,332.688
	L22.625,320z M70.625,368l18.344-18.344l-11.313-11.313l-18.344,18.344L46.625,344l124.688-124.688L184,232l-90.344,90.344
	l11.313,11.313l90.344-90.344L208,256L83.313,380.688L70.625,368z M94.625,392l124.688-124.688L232,280L107.313,404.688L94.625,392z
	 M118.625,416l124.688-124.688L256,304L131.313,428.688L118.625,416z M166.625,464l90.344-90.344l-11.313-11.313l-90.344,90.344
	L142.625,440l124.688-124.688L280,328l-18.344,18.344l11.313,11.313l18.344-18.344L304,352L179.313,476.688L166.625,464z"/>
<path fill="#2FCCC4" d="M323.313,371.313L128,176l18.344-18.344c8.68-8.68,20.695-13.656,32.969-13.656s24.289,4.977,32.969,13.656
	l19.965,19.969c5.313,5.313,13.441,7.527,20.664,5.727l32.852-8.207l38.406,38.406l-8.207,32.832
	c-0.434,1.73-0.648,3.496-0.648,5.281c0,5.734,2.32,11.344,6.375,15.398l19.969,19.969c8.68,8.68,13.656,20.695,13.656,32.969
	s-4.977,24.289-13.656,32.969L323.313,371.313z"/>
<path d="M446.055,0c-14.223,0-27.59,5.535-37.656,15.602L301.656,122.344l-0.922,0.914l-27.16,54.316l48.16,48.16l54.32-27.16
	L483.711,90.91c10.066-10.063,15.602-23.422,15.602-37.652C499.313,23.887,475.426,0,446.055,0z M293.047,174.426l16.465-32.914
	l48.297,48.297l-32.914,16.465L293.047,174.426z M472.398,79.602L371.313,180.68L318.633,128L419.711,26.91
	C426.754,19.871,436.105,16,446.055,16c20.547,0,37.258,16.711,37.258,37.258C483.313,63.207,479.441,72.559,472.398,79.602z"/>
<path fill="#2FCCC4" d="M443.313,80c-13.234,0-24-10.77-24-24s10.766-24,24-24c13.23,0,24,10.77,24,24S456.543,80,443.313,80z"/>
</svg>
